<?xml version="1.0" encoding="UTF-8"?><svg id="Layer_1" xmlns="http://www.w3.org/2000/svg" viewBox="0 0 488.725 99.945"><defs><style>.cls-1{fill:#fff;stroke-width:0px;}</style></defs><path class="cls-1" d="m0,99.11V0h21.297c3.898,0,7.33.511,10.301,1.531,2.969,1.022,5.66,2.832,8.074,5.429,2.412,2.599,4.083,5.638,5.011,9.118.926,3.48,1.392,8.191,1.392,14.129,0,4.455-.257,8.213-.766,11.275-.511,3.062-1.601,5.939-3.271,8.63-1.949,3.249-4.548,5.776-7.795,7.586-3.25,1.81-7.517,2.715-12.807,2.715h-7.238v38.697H0ZM14.198,13.363v33.687h6.821c2.875,0,5.103-.417,6.682-1.253,1.577-.835,2.736-1.995,3.48-3.48.742-1.392,1.183-3.108,1.322-5.15.139-2.04.209-4.315.209-6.821,0-2.318-.048-4.524-.139-6.612-.094-2.088-.511-3.919-1.253-5.499-.744-1.577-1.857-2.784-3.341-3.619-1.485-.835-3.619-1.253-6.403-1.253h-7.377Z"/><path class="cls-1" d="m81.015,99.11v-7.238h-.278c-1.857,2.599-3.737,4.594-5.638,5.985-1.903,1.393-4.572,2.088-8.004,2.088-1.67,0-3.365-.257-5.081-.766-1.718-.509-3.364-1.461-4.941-2.854-1.579-1.298-2.854-3.178-3.828-5.638-.974-2.457-1.461-5.638-1.461-9.535,0-3.988.324-7.492.975-10.51.648-3.014,1.855-5.543,3.619-7.586,1.67-1.949,3.943-3.41,6.821-4.385,2.875-.975,6.542-1.461,10.997-1.461h1.531c.557,0,1.066.048,1.531.139.463.093,1.02.139,1.67.139s1.344.048,2.088.139v-7.377c0-2.412-.511-4.407-1.531-5.986-1.022-1.577-2.877-2.366-5.568-2.366-1.857,0-3.55.604-5.081,1.81-1.531,1.207-2.529,2.971-2.993,5.29h-13.781c.37-6.31,2.506-11.415,6.403-15.312,1.855-1.855,4.083-3.317,6.682-4.385,2.597-1.066,5.52-1.601,8.77-1.601,2.969,0,5.753.465,8.352,1.392,2.597.929,4.872,2.321,6.821,4.176,1.855,1.857,3.341,4.176,4.454,6.96,1.114,2.784,1.67,6.033,1.67,9.744v49.138h-14.198Zm0-30.346c-1.579-.278-2.877-.418-3.897-.418-3.062,0-5.686.721-7.865,2.158-2.182,1.439-3.271,4.061-3.271,7.864,0,2.693.648,4.872,1.949,6.543,1.299,1.67,3.108,2.506,5.429,2.506,2.412,0,4.291-.788,5.637-2.367,1.344-1.576,2.019-3.804,2.019-6.682v-9.604Z"/><path class="cls-1" d="m105.652,99.11V0h14.199v34.939h.278c1.577-2.319,3.456-4.106,5.638-5.359,2.179-1.253,4.663-1.879,7.447-1.879,3.432,0,6.101.604,8.004,1.81,1.901,1.207,3.456,2.738,4.663,4.593.926,1.486,1.531,3.435,1.81,5.847.278,2.414.417,6.172.417,11.275v26.865c0,3.898-.187,7.008-.557,9.327-.372,2.32-.975,4.27-1.81,5.846-2.415,4.455-6.542,6.682-12.389,6.682-3.528,0-6.218-.695-8.073-2.088-1.857-1.392-3.667-3.108-5.429-5.15v6.403h-14.199Zm28.258-48.859c0-2.228-.487-4.176-1.462-5.847-.974-1.67-2.808-2.505-5.498-2.505-2.042,0-3.737.72-5.081,2.158-1.346,1.439-2.018,3.271-2.018,5.498v27.422c0,2.6.648,4.711,1.949,6.334,1.298,1.624,3.015,2.436,5.15,2.436,2.412,0,4.176-.881,5.29-2.645,1.113-1.762,1.67-4.083,1.67-6.96v-25.891Z"/><path class="cls-1" d="m158.965,0h14.198v79.205c0,2.692.487,4.523,1.462,5.498.974.975,2.806,1.601,5.498,1.879v13.363c-3.25,0-6.172-.257-8.77-.766-2.599-.509-4.826-1.507-6.682-2.992-1.857-1.393-3.271-3.363-4.246-5.916-.974-2.552-1.461-5.916-1.461-10.093V0Z"/><path class="cls-1" d="m184.437,52.2c0-2.875.185-5.52.557-7.935.37-2.412,1.066-4.546,2.088-6.403,1.67-3.062,4.059-5.52,7.169-7.377,3.108-1.855,6.89-2.784,11.345-2.784s8.234.929,11.345,2.784c3.108,1.857,5.499,4.315,7.169,7.377,1.02,1.857,1.716,3.991,2.088,6.403.37,2.415.557,5.059.557,7.935v23.246c0,2.878-.187,5.522-.557,7.935-.372,2.414-1.068,4.548-2.088,6.403-1.67,3.062-4.061,5.522-7.169,7.377-3.11,1.857-6.89,2.784-11.345,2.784s-8.237-.927-11.345-2.784c-3.11-1.854-5.499-4.314-7.169-7.377-1.022-1.855-1.718-3.989-2.088-6.403-.372-2.412-.557-5.057-.557-7.935v-23.246Zm14.198,25.474c0,2.692.626,4.711,1.879,6.055,1.252,1.347,2.945,2.019,5.081,2.019s3.828-.672,5.081-2.019c1.253-1.344,1.879-3.362,1.879-6.055v-27.701c0-2.69-.626-4.708-1.879-6.055-1.252-1.344-2.947-2.018-5.081-2.018s-3.828.674-5.081,2.018c-1.253,1.347-1.879,3.365-1.879,6.055v27.701Z"/><path class="cls-1" d="m238.028,99.11V0h21.298c3.897,0,7.329.511,10.301,1.531,2.969,1.022,5.659,2.832,8.073,5.429,2.412,2.599,4.082,5.638,5.011,9.118.927,3.48,1.393,8.191,1.393,14.129,0,4.455-.257,8.213-.766,11.275-.512,3.062-1.601,5.939-3.271,8.63-1.948,3.249-4.548,5.776-7.795,7.586-3.25,1.81-7.517,2.715-12.807,2.715h-7.238v38.697h-14.198Zm14.198-85.747v33.687h6.821c2.875,0,5.103-.417,6.681-1.253,1.577-.835,2.736-1.995,3.48-3.48.741-1.392,1.184-3.108,1.322-5.15.14-2.04.209-4.315.209-6.821,0-2.318-.048-4.524-.14-6.612-.093-2.088-.511-3.919-1.252-5.499-.744-1.577-1.857-2.784-3.341-3.619-1.486-.835-3.619-1.253-6.403-1.253h-7.378Z"/><path class="cls-1" d="m319.042,99.11v-7.238h-.278c-1.857,2.599-3.736,4.594-5.638,5.985-1.903,1.393-4.572,2.088-8.004,2.088-1.671,0-3.365-.257-5.081-.766-1.718-.509-3.364-1.461-4.941-2.854-1.579-1.298-2.854-3.178-3.828-5.638-.975-2.457-1.461-5.638-1.461-9.535,0-3.988.323-7.492.974-10.51.648-3.014,1.855-5.543,3.619-7.586,1.671-1.949,3.943-3.41,6.821-4.385,2.875-.975,6.542-1.461,10.997-1.461h1.53c.558,0,1.066.048,1.531.139.464.093,1.021.139,1.671.139s1.344.048,2.088.139v-7.377c0-2.412-.511-4.407-1.531-5.986-1.022-1.577-2.878-2.366-5.568-2.366-1.857,0-3.549.604-5.08,1.81-1.531,1.207-2.53,2.971-2.993,5.29h-13.78c.369-6.31,2.505-11.415,6.402-15.312,1.855-1.855,4.083-3.317,6.682-4.385,2.598-1.066,5.521-1.601,8.77-1.601,2.97,0,5.753.465,8.353,1.392,2.597.929,4.872,2.321,6.82,4.176,1.855,1.857,3.341,4.176,4.455,6.96,1.113,2.784,1.67,6.033,1.67,9.744v49.138h-14.198Zm0-30.346c-1.579-.278-2.878-.418-3.897-.418-3.062,0-5.686.721-7.865,2.158-2.182,1.439-3.271,4.061-3.271,7.864,0,2.693.647,4.872,1.948,6.543,1.299,1.67,3.108,2.506,5.429,2.506,2.412,0,4.292-.788,5.638-2.367,1.345-1.576,2.019-3.804,2.019-6.682v-9.604Z"/><path class="cls-1" d="m358.714,78.787c0,2.228.626,3.945,1.879,5.15,1.253,1.207,2.945,1.81,5.081,1.81,2.69,0,4.477-.787,5.359-2.366.881-1.577,1.414-3.154,1.601-4.732h14.198c0,6.218-1.903,11.229-5.707,15.033-1.857,1.948-4.085,3.479-6.682,4.594-2.599,1.113-5.522,1.67-8.77,1.67-4.454,0-8.236-.927-11.345-2.784-3.11-1.854-5.498-4.314-7.169-7.377-1.022-1.855-1.718-3.989-2.088-6.403-.372-2.412-.557-5.057-.557-7.935v-23.246c0-2.875.185-5.52.557-7.935.37-2.412,1.065-4.546,2.088-6.403,1.671-3.062,4.059-5.52,7.169-7.377,3.108-1.855,6.891-2.784,11.345-2.784,3.247,0,6.194.557,8.839,1.67,2.646,1.114,4.895,2.645,6.752,4.594,3.71,4.176,5.567,9.605,5.567,16.287h-14.198c0-2.875-.626-4.987-1.879-6.334-1.253-1.344-2.947-2.018-5.081-2.018s-3.828.674-5.081,2.018c-1.253,1.347-1.879,3.365-1.879,6.055v28.814Z"/><path class="cls-1" d="m393.514,99.11V0h14.198v35.357h.278c1.483-2.227,3.271-4.059,5.359-5.499,2.088-1.438,4.754-2.157,8.004-2.157,1.762,0,3.525.302,5.289.905,1.762.604,3.341,1.601,4.733,2.993,1.392,1.392,2.505,3.18,3.341,5.359.835,2.182,1.253,4.851,1.253,8.004v54.148h-14.199v-48.859c0-2.597-.604-4.64-1.81-6.125-1.207-1.483-2.923-2.227-5.15-2.227-2.692,0-4.548.835-5.567,2.505-1.022,1.67-1.531,4.085-1.531,7.238v47.467h-14.198Z"/><path class="cls-1" d="m488.725,69.183h-28.118v9.604c0,2.228.626,3.945,1.879,5.15,1.253,1.207,2.945,1.81,5.081,1.81,2.69,0,4.477-.787,5.359-2.366.881-1.577,1.413-3.154,1.601-4.732h14.198c0,6.218-1.903,11.229-5.707,15.033-1.857,1.948-4.085,3.479-6.682,4.594-2.599,1.113-5.522,1.67-8.77,1.67-4.454,0-8.236-.927-11.345-2.784-3.11-1.854-5.498-4.314-7.169-7.377-1.022-1.855-1.718-3.989-2.088-6.403-.372-2.412-.557-5.057-.557-7.935v-23.246c0-2.875.185-5.52.557-7.935.37-2.412,1.065-4.546,2.088-6.403,1.671-3.062,4.059-5.52,7.169-7.377,3.108-1.855,6.891-2.784,11.345-2.784,3.247,0,6.194.557,8.839,1.67,2.646,1.114,4.894,2.645,6.752,4.594,3.71,4.176,5.567,9.42,5.567,15.729v19.488Zm-28.118-11.136h13.92v-8.074c0-2.69-.626-4.708-1.879-6.055-1.253-1.344-2.947-2.018-5.081-2.018s-3.828.674-5.081,2.018c-1.253,1.347-1.879,3.365-1.879,6.055v8.074Z"/></svg>