<?xml version="1.0" encoding="utf-8"?>
<!-- Generator: Adobe Illustrator 27.9.0, SVG Export Plug-In . SVG Version: 6.00 Build 0)  -->
<svg version="1.1" id="Layer_1" xmlns="http://www.w3.org/2000/svg" xmlns:xlink="http://www.w3.org/1999/xlink" x="0px" y="0px"
	 viewBox="0 0 488.7 99.9" style="enable-background:new 0 0 488.7 99.9;" xml:space="preserve">
<g>
	<path d="M0,99.1V0h21.3c3.9,0,7.3,0.5,10.3,1.5c3,1,5.7,2.8,8.1,5.4c2.4,2.6,4.1,5.6,5,9.1c0.9,3.5,1.4,8.2,1.4,14.1
		c0,4.5-0.3,8.2-0.8,11.3c-0.5,3.1-1.6,5.9-3.3,8.6c-1.9,3.2-4.5,5.8-7.8,7.6c-3.2,1.8-7.5,2.7-12.8,2.7h-7.2v38.7H0z M14.2,13.4V47
		H21c2.9,0,5.1-0.4,6.7-1.3c1.6-0.8,2.7-2,3.5-3.5c0.7-1.4,1.2-3.1,1.3-5.2c0.1-2,0.2-4.3,0.2-6.8c0-2.3,0-4.5-0.1-6.6
		c-0.1-2.1-0.5-3.9-1.3-5.5c-0.7-1.6-1.9-2.8-3.3-3.6c-1.5-0.8-3.6-1.3-6.4-1.3H14.2z"/>
	<path d="M81,99.1v-7.2h-0.3c-1.9,2.6-3.7,4.6-5.6,6c-1.9,1.4-4.6,2.1-8,2.1c-1.7,0-3.4-0.3-5.1-0.8c-1.7-0.5-3.4-1.5-4.9-2.9
		c-1.6-1.3-2.9-3.2-3.8-5.6c-1-2.5-1.5-5.6-1.5-9.5c0-4,0.3-7.5,1-10.5c0.6-3,1.9-5.5,3.6-7.6c1.7-1.9,3.9-3.4,6.8-4.4
		c2.9-1,6.5-1.5,11-1.5c0.5,0,1,0,1.5,0s1.1,0,1.5,0.1c0.5,0.1,1,0.1,1.7,0.1c0.6,0,1.3,0,2.1,0.1v-7.4c0-2.4-0.5-4.4-1.5-6
		c-1-1.6-2.9-2.4-5.6-2.4c-1.9,0-3.5,0.6-5.1,1.8c-1.5,1.2-2.5,3-3,5.3H52.1c0.4-6.3,2.5-11.4,6.4-15.3c1.9-1.9,4.1-3.3,6.7-4.4
		c2.6-1.1,5.5-1.6,8.8-1.6c3,0,5.8,0.5,8.4,1.4c2.6,0.9,4.9,2.3,6.8,4.2c1.9,1.9,3.3,4.2,4.5,7c1.1,2.8,1.7,6,1.7,9.7v49.1H81z
		 M81,68.8c-1.6-0.3-2.9-0.4-3.9-0.4c-3.1,0-5.7,0.7-7.9,2.2c-2.2,1.4-3.3,4.1-3.3,7.9c0,2.7,0.6,4.9,1.9,6.5
		c1.3,1.7,3.1,2.5,5.4,2.5c2.4,0,4.3-0.8,5.6-2.4c1.3-1.6,2-3.8,2-6.7V68.8z"/>
	<path d="M105.7,99.1V0h14.2v34.9h0.3c1.6-2.3,3.5-4.1,5.6-5.4c2.2-1.3,4.7-1.9,7.4-1.9c3.4,0,6.1,0.6,8,1.8
		c1.9,1.2,3.5,2.7,4.7,4.6c0.9,1.5,1.5,3.4,1.8,5.8c0.3,2.4,0.4,6.2,0.4,11.3v26.9c0,3.9-0.2,7-0.6,9.3c-0.4,2.3-1,4.3-1.8,5.8
		c-2.4,4.5-6.5,6.7-12.4,6.7c-3.5,0-6.2-0.7-8.1-2.1c-1.9-1.4-3.7-3.1-5.4-5.2v6.4H105.7z M133.9,50.3c0-2.2-0.5-4.2-1.5-5.8
		c-1-1.7-2.8-2.5-5.5-2.5c-2,0-3.7,0.7-5.1,2.2c-1.3,1.4-2,3.3-2,5.5V77c0,2.6,0.6,4.7,1.9,6.3c1.3,1.6,3,2.4,5.2,2.4
		c2.4,0,4.2-0.9,5.3-2.6c1.1-1.8,1.7-4.1,1.7-7V50.3z"/>
	<path d="M159,0h14.2v79.2c0,2.7,0.5,4.5,1.5,5.5c1,1,2.8,1.6,5.5,1.9v13.4c-3.2,0-6.2-0.3-8.8-0.8c-2.6-0.5-4.8-1.5-6.7-3
		c-1.9-1.4-3.3-3.4-4.2-5.9c-1-2.6-1.5-5.9-1.5-10.1V0z"/>
	<path d="M184.4,52.2c0-2.9,0.2-5.5,0.6-7.9c0.4-2.4,1.1-4.5,2.1-6.4c1.7-3.1,4.1-5.5,7.2-7.4c3.1-1.9,6.9-2.8,11.3-2.8
		s8.2,0.9,11.3,2.8c3.1,1.9,5.5,4.3,7.2,7.4c1,1.9,1.7,4,2.1,6.4c0.4,2.4,0.6,5.1,0.6,7.9v23.2c0,2.9-0.2,5.5-0.6,7.9
		c-0.4,2.4-1.1,4.5-2.1,6.4c-1.7,3.1-4.1,5.5-7.2,7.4c-3.1,1.9-6.9,2.8-11.3,2.8s-8.2-0.9-11.3-2.8c-3.1-1.9-5.5-4.3-7.2-7.4
		c-1-1.9-1.7-4-2.1-6.4c-0.4-2.4-0.6-5.1-0.6-7.9V52.2z M198.6,77.7c0,2.7,0.6,4.7,1.9,6.1c1.3,1.3,2.9,2,5.1,2c2.1,0,3.8-0.7,5.1-2
		c1.3-1.3,1.9-3.4,1.9-6.1V50c0-2.7-0.6-4.7-1.9-6.1c-1.3-1.3-2.9-2-5.1-2c-2.1,0-3.8,0.7-5.1,2c-1.3,1.3-1.9,3.4-1.9,6.1V77.7z"/>
	<path d="M238,99.1V0h21.3c3.9,0,7.3,0.5,10.3,1.5c3,1,5.7,2.8,8.1,5.4c2.4,2.6,4.1,5.6,5,9.1c0.9,3.5,1.4,8.2,1.4,14.1
		c0,4.5-0.3,8.2-0.8,11.3c-0.5,3.1-1.6,5.9-3.3,8.6c-1.9,3.2-4.5,5.8-7.8,7.6c-3.2,1.8-7.5,2.7-12.8,2.7h-7.2v38.7H238z M252.2,13.4
		V47h6.8c2.9,0,5.1-0.4,6.7-1.3c1.6-0.8,2.7-2,3.5-3.5c0.7-1.4,1.2-3.1,1.3-5.2c0.1-2,0.2-4.3,0.2-6.8c0-2.3,0-4.5-0.1-6.6
		c-0.1-2.1-0.5-3.9-1.3-5.5c-0.7-1.6-1.9-2.8-3.3-3.6c-1.5-0.8-3.6-1.3-6.4-1.3H252.2z"/>
	<path d="M319,99.1v-7.2h-0.3c-1.9,2.6-3.7,4.6-5.6,6c-1.9,1.4-4.6,2.1-8,2.1c-1.7,0-3.4-0.3-5.1-0.8c-1.7-0.5-3.4-1.5-4.9-2.9
		c-1.6-1.3-2.9-3.2-3.8-5.6c-1-2.5-1.5-5.6-1.5-9.5c0-4,0.3-7.5,1-10.5c0.6-3,1.9-5.5,3.6-7.6c1.7-1.9,3.9-3.4,6.8-4.4
		c2.9-1,6.5-1.5,11-1.5c0.5,0,1,0,1.5,0c0.6,0,1.1,0,1.5,0.1c0.5,0.1,1,0.1,1.7,0.1c0.6,0,1.3,0,2.1,0.1v-7.4c0-2.4-0.5-4.4-1.5-6
		c-1-1.6-2.9-2.4-5.6-2.4c-1.9,0-3.5,0.6-5.1,1.8c-1.5,1.2-2.5,3-3,5.3h-13.8c0.4-6.3,2.5-11.4,6.4-15.3c1.9-1.9,4.1-3.3,6.7-4.4
		c2.6-1.1,5.5-1.6,8.8-1.6c3,0,5.8,0.5,8.4,1.4c2.6,0.9,4.9,2.3,6.8,4.2c1.9,1.9,3.3,4.2,4.5,7c1.1,2.8,1.7,6,1.7,9.7v49.1H319z
		 M319,68.8c-1.6-0.3-2.9-0.4-3.9-0.4c-3.1,0-5.7,0.7-7.9,2.2c-2.2,1.4-3.3,4.1-3.3,7.9c0,2.7,0.6,4.9,1.9,6.5
		c1.3,1.7,3.1,2.5,5.4,2.5c2.4,0,4.3-0.8,5.6-2.4c1.3-1.6,2-3.8,2-6.7V68.8z"/>
	<path d="M358.7,78.8c0,2.2,0.6,3.9,1.9,5.2c1.3,1.2,2.9,1.8,5.1,1.8c2.7,0,4.5-0.8,5.4-2.4c0.9-1.6,1.4-3.2,1.6-4.7h14.2
		c0,6.2-1.9,11.2-5.7,15c-1.9,1.9-4.1,3.5-6.7,4.6c-2.6,1.1-5.5,1.7-8.8,1.7c-4.5,0-8.2-0.9-11.3-2.8c-3.1-1.9-5.5-4.3-7.2-7.4
		c-1-1.9-1.7-4-2.1-6.4c-0.4-2.4-0.6-5.1-0.6-7.9V52.2c0-2.9,0.2-5.5,0.6-7.9c0.4-2.4,1.1-4.5,2.1-6.4c1.7-3.1,4.1-5.5,7.2-7.4
		c3.1-1.9,6.9-2.8,11.3-2.8c3.2,0,6.2,0.6,8.8,1.7c2.6,1.1,4.9,2.6,6.8,4.6c3.7,4.2,5.6,9.6,5.6,16.3h-14.2c0-2.9-0.6-5-1.9-6.3
		c-1.3-1.3-2.9-2-5.1-2c-2.1,0-3.8,0.7-5.1,2c-1.3,1.3-1.9,3.4-1.9,6.1V78.8z"/>
	<path d="M393.5,99.1V0h14.2v35.4h0.3c1.5-2.2,3.3-4.1,5.4-5.5c2.1-1.4,4.8-2.2,8-2.2c1.8,0,3.5,0.3,5.3,0.9c1.8,0.6,3.3,1.6,4.7,3
		c1.4,1.4,2.5,3.2,3.3,5.4c0.8,2.2,1.3,4.9,1.3,8v54.1h-14.2V50.3c0-2.6-0.6-4.6-1.8-6.1c-1.2-1.5-2.9-2.2-5.2-2.2
		c-2.7,0-4.5,0.8-5.6,2.5c-1,1.7-1.5,4.1-1.5,7.2v47.5H393.5z"/>
	<path d="M488.7,69.2h-28.1v9.6c0,2.2,0.6,3.9,1.9,5.2c1.3,1.2,2.9,1.8,5.1,1.8c2.7,0,4.5-0.8,5.4-2.4c0.9-1.6,1.4-3.2,1.6-4.7h14.2
		c0,6.2-1.9,11.2-5.7,15c-1.9,1.9-4.1,3.5-6.7,4.6c-2.6,1.1-5.5,1.7-8.8,1.7c-4.5,0-8.2-0.9-11.3-2.8c-3.1-1.9-5.5-4.3-7.2-7.4
		c-1-1.9-1.7-4-2.1-6.4c-0.4-2.4-0.6-5.1-0.6-7.9V52.2c0-2.9,0.2-5.5,0.6-7.9c0.4-2.4,1.1-4.5,2.1-6.4c1.7-3.1,4.1-5.5,7.2-7.4
		c3.1-1.9,6.9-2.8,11.3-2.8c3.2,0,6.2,0.6,8.8,1.7c2.6,1.1,4.9,2.6,6.8,4.6c3.7,4.2,5.6,9.4,5.6,15.7V69.2z M460.6,58h13.9V50
		c0-2.7-0.6-4.7-1.9-6.1c-1.3-1.3-2.9-2-5.1-2c-2.1,0-3.8,0.7-5.1,2c-1.3,1.3-1.9,3.4-1.9,6.1V58z"/>
</g>
</svg>
